<?xml version="1.0" encoding="UTF-8"?>
<!DOCTYPE svg PUBLIC "-//W3C//DTD SVG 1.1//EN" "http://www.w3.org/Graphics/SVG/1.1/DTD/svg11.dtd">
<!-- Creator: CorelDRAW -->
<svg xmlns="http://www.w3.org/2000/svg" xml:space="preserve" width="6.23002in" height="1.5in" version="1.1" style="shape-rendering:geometricPrecision; text-rendering:geometricPrecision; image-rendering:optimizeQuality; fill-rule:evenodd; clip-rule:evenodd"
viewBox="0 0 248.05 59.72"
 xmlns:xlink="http://www.w3.org/1999/xlink"
 xmlns:xodm="http://www.corel.com/coreldraw/odm/2003">
 <defs>
  <style type="text/css">
   <![CDATA[
    .fil0 {fill:#003F98;fill-rule:nonzero}
   ]]>
  </style>
 </defs>
 <g id="Layer_x0020_1">
  <metadata id="CorelCorpID_0Corel-Layer"/>
  <g id="layer1">
   <g id="g3414">
    <g>
     <path id="path3416" class="fil0" d="M171.71 49.68c-10.68,0 -14.79,-9.83 -14.79,-19.82 0,-9.99 4.11,-19.81 14.79,-19.81 10.67,0 14.79,9.82 14.79,19.81 0,9.99 -4.13,19.82 -14.79,19.82l0 0zm0 -49.68c-16.81,0 -26.52,12.6 -26.52,29.86 0,17.27 9.71,29.86 26.52,29.86 16.81,0 26.51,-12.6 26.51,-29.86 0,-17.26 -9.71,-29.86 -26.51,-29.86z"/>
    </g>
   </g>
   <g id="g3418">
    <polygon id="path3420" class="fil0" points="-0,1.68 42.13,1.68 42.13,11.73 11.72,11.73 11.72,24.23 40.08,24.23 40.08,34.02 11.72,34.02 11.72,48 42.13,48 42.13,58.05 -0,58.05 "/>
   </g>
   <g id="g3422">
    <g>
     <path id="path3424" class="fil0" d="M69.48 31.09l-10.61 0 0 -19.37 0 -0.01 10.61 0c7.37,0 12.28,3.21 12.28,9.69 0,6.48 -4.9,9.69 -12.28,9.69l0 0zm-22.32 26.96l11.71 0 0 -16.91 10.61 0c14.36,0 24,-7.05 24,-19.73 0,-12.68 -9.64,-19.73 -24,-19.73l-22.32 0 0 56.37 0 0z"/>
    </g>
   </g>
   <g id="g3426">
    <path id="path3428" class="fil0" d="M214.68 1.68l-12.03 0 0 56.37 11.49 0 0 -22.83c0,-6.25 -0.22,-11.79 -0.44,-16.7 1.35,2.82 5.47,11.3 7.37,14.49l14.95 25.04 12.03 0 0 -56.37 -11.49 0 0 22.26c0,6.24 0.23,12.37 0.44,17.26 -1.35,-2.82 -5.46,-11.3 -7.38,-14.48l-14.94 -25.05z"/>
   </g>
   <g id="g3430">
    <path id="path3432" class="fil0" d="M106.79 39.4c0,7.58 6.3,10.52 13.01,10.52 4.38,0 11.48,-1.27 11.48,-7.09 0,-6.15 -8.68,-7.31 -17.06,-9.54 -8.78,-2.33 -17.24,-5.62 -17.24,-16.07 0,-11.64 11.01,-17.23 21.3,-17.23 11.88,0 22.8,5.18 22.8,18.34l-11.72 0c-0.4,-6.86 -5.66,-8.61 -11.64,-8.61 -3.99,0 -9.02,1.68 -9.02,6.47 0,4.38 2.87,5.06 17.13,8.73 4.15,1.04 17.16,3.55 17.16,16.46 0,10.45 -8.21,18.26 -23.69,18.26 -12.59,0 -24.39,-6.21 -24.24,-20.25l11.72 0z"/>
   </g>
  </g>
 </g>
</svg>
