<?xml version="1.0" encoding="UTF-8"?>
<!DOCTYPE svg PUBLIC "-//W3C//DTD SVG 1.1//EN" "http://www.w3.org/Graphics/SVG/1.1/DTD/svg11.dtd">
<!-- Creator: CorelDRAW -->
<svg xmlns="http://www.w3.org/2000/svg" xml:space="preserve" width="7.7995in" height="1.5in" version="1.1" style="shape-rendering:geometricPrecision; text-rendering:geometricPrecision; image-rendering:optimizeQuality; fill-rule:evenodd; clip-rule:evenodd"
viewBox="0 0 440.35 84.69"
 xmlns:xlink="http://www.w3.org/1999/xlink"
 xmlns:xodm="http://www.corel.com/coreldraw/odm/2003">
 <defs>
  <style type="text/css">
   <![CDATA[
    .fil0 {fill:#2D7D2F;fill-rule:nonzero}
    .fil1 {fill:#FFDD00;fill-rule:nonzero}
   ]]>
  </style>
 </defs>
 <g id="Layer_x0020_1">
  <metadata id="CorelCorpID_0Corel-Layer"/>
  <g id="_2947960211440">
   <g>
    <path class="fil0" d="M46.87 0c13.51,0 27.28,2.91 40.23,9.18 4.4,10.52 6.66,21.81 6.66,33.2 0,10.96 -2.06,22.11 -6.62,33.13 -13,6.29 -26.72,9.18 -40.25,9.18 -13.53,0 -27.25,-2.89 -40.25,-9.18 -4.58,-11.04 -6.64,-22.18 -6.64,-33.15 0,-10.99 2.08,-22.26 6.66,-33.2 12.93,-6.25 26.7,-9.16 40.21,-9.16z"/>
    <path class="fil1" d="M9.46 72.87c-3.77,-9.46 -5.85,-19.76 -5.85,-30.51 0,-10.76 2.08,-21.07 5.87,-30.56 11.24,-5.27 24.04,-8.23 37.39,-8.23 13.35,0 26.16,2.96 37.39,8.23 3.79,9.49 5.87,19.8 5.87,30.56 0,10.74 -2.06,21.03 -5.85,30.51 -11.24,5.28 -24.06,8.23 -37.41,8.23 -13.35,0.02 -26.17,-2.94 -37.41,-8.23z"/>
   </g>
   <path class="fil0" d="M82.15 70.9c-2.36,-3.89 -5.53,-7.03 -5.57,-7.06 -0.21,-0.07 -0.44,-0.14 -0.65,-0.21 -6.73,-2.08 -11.15,-3.63 -13.1,-4.63 -2.68,-1.39 -5.51,-4.77 -5.81,-5.16 -3.15,-0.25 -5.76,-0.19 -8.26,0.12l-1.6 0.21c-3.05,0.39 -6.18,0.81 -9.26,0.32 -2.04,-0.33 -4.03,-0.99 -6.15,-1.67 -3.26,-1.06 -6.59,-2.17 -10.39,-2.15l-0.16 -0 0.07 0.14c0.86,1.67 4.28,6.78 8.56,8.19 0.95,0.23 1.62,0.48 1.92,0.7 0,0.02 1.64,3.35 2.08,4.25 -2.66,-1.22 -10.9,-5.39 -17.54,-13.47l0 -0.02c0,-0.11 -0.18,-1.67 -0.21,-2.03 3.96,-1.48 12.86,-2.33 13.86,-2.43l0.07 0 0.04 -0.09c0.53,-4.69 1.64,-8.44 3.72,-12.54 0.05,-0.12 0.09,-0.25 0.09,-0.33 0,-0.07 -0.02,-0.14 -0.05,-0.19 -0.12,-0.23 -0.41,-0.26 -0.41,-0.26l-6.06 -1.06 -0.65 -2.01c4.37,-1.62 9.76,-3.15 12.84,-3.82 0.53,-0.83 0.67,-1.29 0.67,-1.83 0,-0.46 -0.23,-0.86 -0.67,-1.16 -2.18,-1.48 -9.07,-0.58 -16.03,2.08 -0.02,-0.04 -0.02,-0.04 -0.04,-0.07 1.44,-1.07 4.03,-2.69 5.95,-3.58l0.07 -0.04 -0.02 -0.07c-0.53,-1.76 -3.93,-3.1 -4.3,-3.24 0,-0.05 0.02,-0.11 0.02,-0.14 3.45,-0.23 5.76,1.37 6.45,2.54l0.04 0.05 0.07 -0.02c0.44,-0.14 2.01,-0.63 3.7,-0.85l0.11 0 -0.04 -0.11c-0.56,-2.96 -3.38,-4.93 -4.35,-5.53 0.04,-0.05 0.04,-0.07 0.07,-0.11 3.35,0.26 6.43,3.14 7.12,5.57l0.02 0.07 0.07 0c0.9,0.04 1.99,0.12 2.71,0.25l0.07 0.02 0.04 -0.07c0.26,-0.63 0.4,-1.32 0.4,-2.03 0,-2.18 -1.23,-4.53 -2.77,-6.02 0.04,-0.04 0.05,-0.09 0.09,-0.12 4.39,1.66 5.5,4.83 5.5,7.77 0,2.06 -0.55,4.02 -0.9,5.27l-0.14 0.51c0,0 6.46,-0.77 6.89,-0.83 -0.65,0.83 -2.08,2.31 -4.9,3.87 0,-0.02 -2.91,-0.37 -2.91,-0.37l-0.07 -0.02 -0.02 0.07c-0.19,0.6 -1.9,5.99 -1.9,9.95 0,1.46 0.42,2.61 1.23,3.4 1.46,1.41 3.88,1.48 5.57,1.41 7.19,-0.26 12.81,0.18 16.7,1.34l0.23 0.07 0.04 -0.05c0.25,-0.37 0.42,-1.06 0.42,-1.97 0,-1.74 -0.69,-4.32 -3.03,-7.26 0.02,-0.02 0.02,-0.04 0.05,-0.05 0.39,0.21 6.69,3.79 7.54,9.19 -0.14,0.05 -3.03,1.23 -3.03,1.23l0.09 0.09c2.66,2.78 3.58,6.16 4.32,8.86 0.58,2.13 1.29,3.51 2.22,4.32 1.07,0.93 5.16,2.87 6.38,3.45 1.02,1.44 2.77,4.16 4.03,6.25l0 0c2.77,-8.19 4.17,-16.77 4.17,-25.42 0,-9.85 -1.8,-19.45 -5.3,-28.59 -10.87,-4.91 -23.04,-7.52 -35.25,-7.52 -12.22,0 -24.38,2.61 -35.25,7.52 -3.52,9.12 -5.34,18.81 -5.32,28.59 0,9.81 1.8,19.41 5.28,28.53 10.87,4.91 23.04,7.5 35.26,7.5 12.22,0.02 24.4,-2.57 35.28,-7.5l0 0zm27.07 -17.17c0,0 4,1.43 8.49,1.43 4.77,0 7.75,-0.65 9.42,-2.34 1.37,-1.39 1.94,-3.7 1.85,-7.1l0 -22.69 7.06 0 0 23.67c-0.11,10.48 -5.2,14.95 -17.07,14.95 -5.76,0 -9.78,-0.9 -9.78,-0.9l0 -7.03 0.02 0zm31 -7.75c0,7.22 4.74,15.68 18.11,15.68 13.37,0 18.11,-8.44 18.11,-15.68 0,-10.11 -6.76,-16.15 -18.11,-16.15 -11.33,0 -18.11,6.04 -18.11,16.15zm18.11 9.48c-4.12,0 -11.06,-1.27 -11.06,-9.79 0,-6.11 4.03,-9.62 11.06,-9.62 7.03,0 11.04,3.51 11.04,9.62 0,8.51 -6.9,9.79 -11.04,9.79zm47.7 -24.91l0 12.08 -18.35 0 0 -12.08 -7.05 0 0 30.4 7.05 0 0 -12.08 18.35 0 0 12.08 7.05 0 0 -30.4 -7.05 0zm112.09 24.17l0 -5.87 16.28 -0 0 -6.22 -16.28 0 0 -5.87 21.03 0 0 -6.22 -28.08 0 0 30.4 28.08 0 0 -6.22 -21.03 0 0 -0.02zm32.8 0l0 -5.87 16.28 -0 0 -6.22 -16.28 0 0 -5.87 21.03 0 0 -6.22 -28.09 0 0 30.4 28.09 0 0 -6.22 -21.03 0 0 -0.02zm68.38 0l0 -5.87 16.29 -0 0 -6.22 -16.29 0 0 -5.87 21.05 0 0 -6.22 -28.09 0 0 30.4 28.09 0 0 -6.22 -21.05 0 0 -0.02zm-143.39 -25.45l0 25.42 9.97 0c5.41,0 14.5,-1.67 14.5,-12.82 0,-8.01 -5.28,-12.59 -14.5,-12.59l-9.97 0 0 0zm9.97 -6.27c13.51,0 21.59,7.2 21.59,19.25 0,8.63 -5.65,18.71 -21.59,18.71l-17.05 -0 0 -37.96 8.16 0 8.9 0zm123.14 37.96l-8.53 0 -8.51 -11.11 -8.28 0 0 11.11 -7.05 0 0 -30.4 19.94 0c6.87,0 10.96,3.65 10.96,9.76 0,3.66 -2.04,7.77 -7.4,9.05l8.86 11.59zm-12.03 -17.33c1.46,0 3.91,-0.46 3.91,-3.47 0,-2.15 -1.43,-3.38 -3.91,-3.38l-12.89 0 0 6.83 12.89 0.02zm-152.77 17.33l-18.34 -20.71 0 20.71 -7.05 0 0 -30.4 6.99 0 18.41 20.5 0 -20.5 7.06 0 0 30.4 -7.08 0z"/>
  </g>
 </g>
</svg>
