<?xml version="1.0" encoding="UTF-8"?>
<!DOCTYPE svg PUBLIC "-//W3C//DTD SVG 1.1//EN" "http://www.w3.org/Graphics/SVG/1.1/DTD/svg11.dtd">
<!-- Creator: CorelDRAW -->
<svg xmlns="http://www.w3.org/2000/svg" xml:space="preserve" width="7.06706in" height="1.5in" version="1.1" style="shape-rendering:geometricPrecision; text-rendering:geometricPrecision; image-rendering:optimizeQuality; fill-rule:evenodd; clip-rule:evenodd"
viewBox="0 0 285.53 60.6"
 xmlns:xlink="http://www.w3.org/1999/xlink"
 xmlns:xodm="http://www.corel.com/coreldraw/odm/2003">
 <defs>
  <style type="text/css">
   <![CDATA[
    .fil0 {fill:#FF6600}
   ]]>
  </style>
 </defs>
 <g id="Layer_x0020_1">
  <metadata id="CorelCorpID_0Corel-Layer"/>
  <g id="g3">
   <path id="path7" class="fil0" d="M10.92 0l-10.92 0 0 43.61 10.92 0 0 -43.61 0 0zm270.71 59.52c1.66,0 3.11,-1.45 3.11,-3.18 0,-1.74 -1.45,-3.18 -3.11,-3.18 -0.07,0 -0.07,0 -0.14,0 -4.19,0 -4.12,6.36 0,6.36 0.07,0 0.07,0 0.14,0l0 0zm0 -7.23c2.17,0.07 3.9,1.81 3.9,4.05 0,2.17 -1.74,3.98 -3.9,4.05 -0.07,0 -0.07,0 -0.14,0 -2.17,0 -3.98,-1.88 -3.98,-4.05 0,-2.24 1.81,-4.05 3.98,-4.05 0.07,0 0.07,0 0.14,0l0 0zm0 5.13l0.43 1.01 1.45 0 -0.94 -1.95c0.58,-0.14 0.87,-0.58 0.87,-1.16 0,-1.01 -1.01,-1.23 -1.81,-1.3 -0.07,0 -0.07,0 -0.07,0l-1.81 0 0 4.41 1.37 0 0 -1.66 0.14 0 0.36 0.65 0 0zm0 -2.53c0.22,0.07 0.43,0.22 0.43,0.51 0,0.36 -0.22,0.51 -0.43,0.51 -0.07,0 -0.14,0.07 -0.22,0.07l-0.29 0 0 -1.08 0.22 0c0.07,-0 0.14,-0 0.29,-0l0 0zm-107.25 -37.39c11.86,0 21.55,9.69 21.55,21.48 0,11.86 -9.69,21.48 -21.55,21.48 -0.94,0 -1.81,0 -2.68,-0.14l0 -11.07c0.87,0.22 1.74,0.36 2.68,0.36 5.86,0 10.63,-4.77 10.63,-10.63 0,-5.86 -4.77,-10.56 -10.63,-10.56 -5.86,0 -10.63,4.7 -10.63,10.56 0,1.23 0.22,2.46 0.65,3.54l-11.28 0c-0.14,-1.16 -0.29,-2.31 -0.29,-3.54 -0,-11.79 9.69,-21.48 21.55,-21.48l0 0zm-120.2 43.1l-13.89 0 -26.04 -29.72 27.05 -30.88 13.96 0 -27.12 30.88 26.04 29.72 0 0zm7.74 -42.53c0,7.06 0,14.13 0,21.19 0,1.16 0.22,2.24 0.58,3.26l-9.4 0 -1.81 0c-0.22,-1.01 -0.29,-2.17 -0.29,-3.26l0 -0.29 0 -20.9 10.92 0 0 0zm188.98 -0.58c11.86,0 21.55,9.69 21.55,21.48 0,0.07 0,0.22 0,0.29l0 21.19 -10.92 -0 0 -2.75c-3.18,1.74 -6.8,2.75 -10.63,2.75 -0.87,0 -1.81,0 -2.68,-0.14l0 -11.07c0.87,0.22 1.74,0.36 2.68,0.36 5.57,0 10.2,-4.34 10.63,-9.76l0 -0.58c0,-0.07 0,-0.22 0,-0.29 0,-5.86 -4.77,-10.56 -10.63,-10.56 -5.86,0 -10.63,4.7 -10.63,10.56 0,1.23 0.29,2.46 0.65,3.54l-11.21 0c-0.22,-1.16 -0.29,-2.31 -0.29,-3.54 0,-11.79 9.62,-21.48 21.48,-21.48l0 0zm-35.66 -17.5l-10.99 0 0 60.53 10.99 -0 0 -32.76 11.21 0 0 -10.92 -11.21 0 0 -16.85 0 0zm-101.03 0l-10.92 0 0 38.98 0 0.29c0,1.08 0.14,2.24 0.29,3.26l11.28 0c-0.43,-1.01 -0.65,-2.1 -0.65,-3.26l0 -1.16c0.43,-5.43 5.06,-9.69 10.63,-9.69 5.86,0 10.56,4.7 10.56,10.56 0,5.86 -4.7,10.63 -10.56,10.63 -0.94,0 -1.88,-0.14 -2.67,-0.36l0 11.07c0.87,0.14 1.74,0.14 2.67,0.14 11.86,0 21.41,-9.62 21.41,-21.48 0,-11.79 -9.55,-21.48 -21.41,-21.48 -3.83,0 -7.45,1.01 -10.63,2.82l0 -20.32 0 0zm-31.1 18.08l10.92 0 0 20.9 0 0.29c-0.22,9.91 -9.76,21.19 -21.55,21.19 -0.87,0 -1.81,0 -2.68,-0.14l0 -11.07c0.87,0.22 1.74,0.36 2.68,0.36 5.71,0 10.34,-7.02 10.63,-10.34 0,-7.09 0,-14.1 0,-21.19l0 0z"/>
  </g>
 </g>
</svg>
