<svg width="215" height="31" viewBox="0 0 215 31" fill="none" xmlns="http://www.w3.org/2000/svg">
<g clip-path="url(#clip0_218_553)">
<path d="M42.5475 0V31H34.812V12.9437L35.5714 11.625L37.5204 8.23691L37.8039 7.75L42.269 0H42.5475Z" fill="#FB7221"/>
<path d="M33.3389 15.5051L28.9903 23.0522L28.8789 23.25L24.4138 15.5051L22.1762 11.625H22.1711C20.8346 9.3071 18.3388 7.75 15.4785 7.75H2.07812C4.08287 4.27569 7.39373 1.65854 11.3374 0.562991C12.6587 0.197808 14.0458 0 15.4785 0C21.0877 0 25.9983 2.9874 28.7118 7.4609L28.7574 7.53698L28.8789 7.75L28.884 7.75507L29.046 8.0391L29.0865 8.11518L31.1115 11.625L33.344 15.5051H33.3389Z" fill="#FB7221"/>
<path d="M42.2691 0L37.804 7.75L37.5205 8.23691L35.5714 11.625L34.8121 12.9437L33.3389 15.5051L31.1063 11.625L29.0813 8.11518L29.0358 8.03403L28.8738 7.75507V7.74493L33.1111 0.390543L33.3389 0H42.2691Z" fill="white"/>
<path d="M28.8687 31H15.4734C6.92791 31 0.00244141 24.0615 0.00244141 15.5C0.00244141 14.161 0.174566 12.8626 0.488439 11.625H8.77572C8.11253 12.7662 7.73285 14.09 7.73285 15.5C7.73285 19.7808 11.1956 23.25 15.4683 23.25C18.3337 23.25 20.8345 21.6929 22.166 19.3699L22.171 19.375L26.3071 26.5569L26.6361 27.125L28.8687 31Z" fill="white"/>
<path d="M68.4269 11.7366C68.0877 11.3257 67.6726 11.0062 67.1816 10.783C66.6905 10.5599 66.1184 10.4534 65.4704 10.4534C64.8225 10.4534 64.22 10.5802 63.6682 10.8287C63.1164 11.0772 62.6355 11.4272 62.2305 11.8786C61.8255 12.33 61.5065 12.8626 61.2787 13.4813C61.0509 14.1001 60.9345 14.7747 60.9345 15.4949C60.9345 16.2304 61.0509 16.9049 61.2787 17.5187C61.5065 18.1324 61.8204 18.6598 62.2153 19.1113C62.6101 19.5627 63.081 19.9126 63.6176 20.1612C64.1542 20.4097 64.7313 20.5365 65.3489 20.5365C66.0577 20.5365 66.6804 20.3894 67.2271 20.0952C67.7739 19.801 68.2194 19.3851 68.5737 18.8577L71.4442 21.0031C70.781 21.9313 69.9406 22.616 68.9281 23.0623C67.9106 23.5036 66.8677 23.7268 65.7944 23.7268C64.5744 23.7268 63.4455 23.534 62.4178 23.1536C61.385 22.7682 60.4991 22.2204 59.7448 21.5052C58.9955 20.7901 58.4083 19.9228 57.9881 18.9033C57.5679 17.8838 57.3604 16.7477 57.3604 15.4949C57.3604 14.2421 57.5679 13.106 57.9881 12.0865C58.4083 11.0671 58.9905 10.2048 59.7448 9.48969C60.494 8.77454 61.385 8.22676 62.4178 7.84129C63.4505 7.45582 64.5744 7.26816 65.7944 7.26816C66.2349 7.26816 66.6956 7.30873 67.1765 7.38989C67.6574 7.47104 68.1282 7.59784 68.5889 7.77536C69.0547 7.95288 69.5002 8.18619 69.9254 8.48544C70.3507 8.77961 70.7354 9.13972 71.0746 9.57084L68.4269 11.7366ZM77.1698 16.6463L71.2974 7.66377H75.5802L78.8911 13.527L82.4044 7.66377H86.4899L80.6174 16.6463V23.3261H77.1749V16.6463H77.1698ZM87.639 7.66377H92.3218L98.9689 18.5483H99.0144V7.66377H102.457V23.3261H97.9513L91.1271 12.1778H91.0815V23.3261H87.639V7.66377ZM104.796 15.4949C104.796 14.2421 105.003 13.106 105.424 12.0865C105.844 11.0671 106.426 10.2048 107.18 9.48969C107.929 8.77454 108.82 8.22676 109.853 7.84129C110.886 7.45582 112.01 7.26816 113.23 7.26816C114.45 7.26816 115.579 7.46089 116.607 7.84129C117.639 8.22676 118.525 8.77454 119.28 9.48969C120.029 10.2048 120.616 11.0722 121.036 12.0865C121.456 13.106 121.664 14.2421 121.664 15.4949C121.664 16.7477 121.456 17.8838 121.036 18.9033C120.616 19.9228 120.034 20.785 119.28 21.5052C118.53 22.2204 117.639 22.7682 116.607 23.1536C115.574 23.5391 114.45 23.7268 113.23 23.7268C112.01 23.7268 110.881 23.534 109.853 23.1536C108.82 22.7682 107.935 22.2204 107.18 21.5052C106.431 20.7901 105.844 19.9228 105.424 18.9033C105.003 17.8838 104.796 16.7477 104.796 15.4949ZM108.375 15.4949C108.375 16.2304 108.491 16.9049 108.719 17.5187C108.947 18.1324 109.276 18.6598 109.701 19.1113C110.127 19.5627 110.638 19.9126 111.235 20.1612C111.833 20.4097 112.496 20.5365 113.235 20.5365C113.969 20.5365 114.637 20.4097 115.235 20.1612C115.832 19.9126 116.343 19.5576 116.769 19.1113C117.194 18.6598 117.523 18.1324 117.751 17.5187C117.978 16.9049 118.095 16.2304 118.095 15.4949C118.095 14.7747 117.978 14.1001 117.751 13.4813C117.523 12.8626 117.194 12.33 116.769 11.8786C116.343 11.4272 115.832 11.0772 115.235 10.8287C114.637 10.5802 113.974 10.4534 113.235 10.4534C112.501 10.4534 111.833 10.5802 111.235 10.8287C110.638 11.0772 110.127 11.4272 109.701 11.8786C109.276 12.33 108.947 12.8626 108.719 13.4813C108.491 14.1001 108.375 14.7747 108.375 15.4949ZM124.008 7.66377H130.058C130.852 7.66377 131.607 7.73985 132.321 7.89708C133.034 8.05432 133.662 8.30792 134.199 8.6731C134.735 9.03321 135.161 9.52012 135.479 10.1338C135.798 10.7475 135.955 11.5083 135.955 12.4213C135.955 13.527 135.667 14.4653 135.095 15.2413C134.523 16.0173 133.682 16.5043 132.579 16.7122L136.553 23.3261H132.422L129.151 17.0672H127.45V23.3261H124.008V7.66377ZM127.45 14.1458H129.48C129.789 14.1458 130.118 14.1356 130.463 14.1103C130.807 14.09 131.121 14.024 131.399 13.9125C131.678 13.8009 131.91 13.6284 132.093 13.39C132.275 13.1567 132.371 12.822 132.371 12.3959C132.371 11.9953 132.29 11.6808 132.128 11.4424C131.966 11.204 131.759 11.0265 131.511 10.8997C131.262 10.7729 130.974 10.6918 130.65 10.6461C130.326 10.6005 130.007 10.5802 129.698 10.5802H127.445V14.1407L127.45 14.1458ZM145.113 7.66377H148.272L153.239 19.5221H153.325L158.251 7.66377H161.41V23.3261H159.288V10.4483H159.243L153.968 23.3261H152.555L147.275 10.4483H147.23V23.3261H145.108V7.66377H145.113ZM165.272 7.66377H175.362V9.65707H167.388V14.3233H174.81V16.3166H167.388V21.3379H175.757V23.3312H165.267V7.66885L165.272 7.66377ZM178.409 7.66377H183.862C184.965 7.66377 185.932 7.79057 186.768 8.0391C187.598 8.28763 188.322 8.62745 188.929 9.04335C189.542 9.46433 190.048 9.94617 190.453 10.4939C190.858 11.0417 191.177 11.5996 191.415 12.1728C191.648 12.7459 191.82 13.3241 191.921 13.8972C192.022 14.4704 192.078 15.0029 192.078 15.4899C192.078 16.4941 191.896 17.4629 191.526 18.4012C191.157 19.3395 190.615 20.1713 189.891 20.9017C189.167 21.632 188.276 22.2204 187.208 22.6616C186.14 23.1029 184.91 23.3261 183.507 23.3261H178.404V7.66377H178.409ZM180.531 21.3379H183.204C184.1 21.3379 184.95 21.2161 185.755 20.9727C186.56 20.7292 187.259 20.364 187.866 19.8771C188.468 19.3902 188.949 18.7816 189.304 18.0512C189.658 17.3208 189.835 16.4687 189.835 15.4949C189.835 14.9928 189.754 14.4095 189.592 13.7349C189.43 13.0654 189.127 12.4264 188.676 11.8228C188.225 11.2192 187.603 10.707 186.808 10.286C186.013 9.86502 184.986 9.65707 183.715 9.65707H180.536V21.3379H180.531ZM195.126 7.66377H197.247V23.3261H195.126V7.66377ZM206.167 7.66377H208.086L214.778 23.3261H212.303L210.733 19.4562H203.291L201.747 23.3261H199.272L206.162 7.66377H206.167ZM209.964 17.5947L207.048 10.4026H207.002L204.046 17.5947H209.964Z" fill="#EBECEC"/>
</g>
<defs>
<clipPath id="clip0_218_553">
<rect width="214.786" height="31" fill="white"/>
</clipPath>
</defs>
</svg>
