<?xml version="1.0" encoding="UTF-8"?>
<!DOCTYPE svg PUBLIC "-//W3C//DTD SVG 1.1//EN" "http://www.w3.org/Graphics/SVG/1.1/DTD/svg11.dtd">
<!-- Creator: CorelDRAW -->
<svg xmlns="http://www.w3.org/2000/svg" xml:space="preserve" width="13.4145in" height="1.5in" version="1.1" style="shape-rendering:geometricPrecision; text-rendering:geometricPrecision; image-rendering:optimizeQuality; fill-rule:evenodd; clip-rule:evenodd"
viewBox="0 0 1225.86 137.07"
 xmlns:xlink="http://www.w3.org/1999/xlink"
 xmlns:xodm="http://www.corel.com/coreldraw/odm/2003">
 <defs>
  <style type="text/css">
   <![CDATA[
    .fil0 {fill:#2D3394;fill-rule:nonzero}
   ]]>
  </style>
 </defs>
 <g id="Layer_x0020_1">
  <metadata id="CorelCorpID_0Corel-Layer"/>
  <path class="fil0" d="M56.82 0c-16.83,17.79 -35.85,31.21 -56.33,41.71l72.92 62.41 -4.15 2.33 -30.24 -23.91c-9.75,-7.87 -34.14,-2.33 -39.02,7.58l56.09 46.96c15.61,-17.79 34.38,-32.08 56.58,-42.87l-73.65 -61.25 3.9 -3.79 23.9 20.41c11.95,10.21 21.46,12.83 47.07,-2.33l-57.06 -47.24z"/>
  <g id="_2946559537296">
   <polygon class="fil0" points="142.43,25.75 182.3,25.75 194.18,75.63 194.18,75.63 206.05,25.75 245.62,25.75 245.62,111.31 220.05,111.31 220.05,50.15 219.75,50.15 204.83,111.31 183.52,111.31 168.3,50.15 168.3,50.15 168.3,111.31 142.43,111.31 "/>
   <g>
    <path class="fil0" d="M297.38 51.6l0 0 -8.52 29.13 17.05 0 -8.52 -29.13 0 0zm-17.66 -25.85l34.7 0 30.44 85.56 -30.14 0 -3.04 -9.83 -29.53 0 -3.04 9.83 -30.14 0 30.75 -85.56z"/>
   </g>
   <g>
    <path class="fil0" d="M442.28 25.75l28.31 0 0 51.7c0,10.92 5.18,14.56 14.61,14.56 9.13,0 14.61,-3.64 14.61,-14.56l0 -51.7 28.31 0 0 53.16c0,27.3 -13.7,35.32 -42.93,35.32 -28.92,0 -42.93,-8.37 -42.93,-35.32l0 -53.16 0 0zm0 0l0 0 0 0z"/>
   </g>
   <polygon class="fil0" points="559.79,47.24 533.61,47.24 533.61,25.75 614.28,25.75 614.28,47.24 588.1,47.24 588.1,111.31 559.79,111.31 "/>
   <rect class="fil0" x="620.06" y="25.76" width="28.31" height="85.56"/>
   <g>
    <path class="fil0" d="M376.22 47.24l19.79 0c4.56,0 8.22,1.46 8.22,8.01 0,5.46 -2.44,8.01 -7.91,8.01l-20.09 0 0 -16.02 0 0zm64.54 64.08l-24.05 -26.58c19.79,-3.64 17.35,-26.94 17.35,-34.95 0,-9.46 -4.26,-17.47 -9.74,-20.75 -3.96,-2.18 -8.83,-3.28 -17.05,-3.28l-59.36 0 0 85.56 28.31 0 0 -26.21 4.87 0 23.75 26.21 35.92 -0 0 -0z"/>
   </g>
   <path class="fil0" d="M740.31 74.91c-13.7,-2.55 -19.48,-12.01 -19.48,-24.03 0,-22.21 18.26,-28.03 41.4,-28.03 31.97,0 45.05,9.83 45.97,28.03l-32.88 0c0,-3.64 -1.83,-5.46 -4.26,-6.92 -2.44,-1.46 -5.78,-1.82 -8.83,-1.82 -8.52,0 -11.26,2.55 -11.26,6.19 0,2.55 0.91,4 3.65,4.37l33.79 5.82c14.31,2.55 23.13,10.56 23.13,24.76 0,20.75 -14.31,30.58 -45.97,30.58 -21.61,0 -45.35,-3.64 -45.66,-28.76l34.09 0c0,2.91 0.91,4.73 3.04,6.19 2.13,1.09 5.18,1.82 9.74,1.82 8.83,0 11.26,-2.91 11.26,-6.92 0,-2.55 -1.22,-5.1 -5.17,-5.82l-32.58 -5.46z"/>
   <path class="fil0" d="M819.15 25.75l28.31 0 0 51.7c0,10.92 5.18,14.56 14.61,14.56 9.13,0 14.61,-3.64 14.61,-14.56l0 -51.7 28.31 0 0 53.16c0,27.3 -13.7,35.32 -42.92,35.32 -28.92,0 -42.92,-8.37 -42.92,-35.32l0 -53.16z"/>
   <polygon class="fil0" points="912.31,93.11 955.23,47.24 915.35,47.24 915.35,25.75 993.29,25.75 993.29,44.32 951.58,89.83 992.37,89.83 992.37,111.31 912.31,111.31 "/>
   <g>
    <path class="fil0" d="M1000.9 25.75l28.31 0 0 51.7c0,10.92 5.18,14.56 14.61,14.56 9.14,0 14.61,-3.64 14.61,-14.56l0 -51.7 28.31 0 0 53.16c0,27.3 -13.7,35.32 -42.93,35.32 -28.92,0 -42.92,-8.37 -42.92,-35.32l0 -53.16 0 0zm0 0l0 0 0 0z"/>
   </g>
   <rect class="fil0" x="1197.55" y="25.76" width="28.31" height="85.56"/>
   <polygon class="fil0" points="1098.92,111.31 1126.31,111.31 1125.71,80.73 1153.41,111.31 1189.33,111.31 1150.06,67.62 1191.47,25.75 1157.06,25.75 1126.31,55.24 1126.31,25.75 1098.92,25.75 "/>
  </g>
 </g>
</svg>
