<?xml version="1.0" encoding="UTF-8"?>
<!DOCTYPE svg PUBLIC "-//W3C//DTD SVG 1.1//EN" "http://www.w3.org/Graphics/SVG/1.1/DTD/svg11.dtd">
<!-- Creator: CorelDRAW -->
<svg xmlns="http://www.w3.org/2000/svg" xml:space="preserve" width="4.27002in" height="1.5in" version="1.1" style="shape-rendering:geometricPrecision; text-rendering:geometricPrecision; image-rendering:optimizeQuality; fill-rule:evenodd; clip-rule:evenodd"
viewBox="0 0 135.29 47.53"
 xmlns:xlink="http://www.w3.org/1999/xlink"
 xmlns:xodm="http://www.corel.com/coreldraw/odm/2003">
 <defs>
  <style type="text/css">
   <![CDATA[
    .fil1 {fill:#2D7D2F}
    .fil0 {fill:#FE0000}
   ]]>
  </style>
 </defs>
 <g id="Layer_x0020_1">
  <metadata id="CorelCorpID_0Corel-Layer"/>
  <g id="_2947963781552">
   <path class="fil0" d="M9.82 16.44l5.33 0 9.64 0 0 4.82 -9.64 0 0 11.45 -5.33 0 0 -11.45 -9.82 0 0 -4.82 9.82 0 0 0zm21.48 0l5.33 0 11.67 16.27 -5.33 0 -2.7 -3.79 -12.54 0 -2.7 3.79 -5.33 0 11.61 -16.27 0 0zm6.3 8.7l-2.76 -3.88 -1.61 0 -2.79 3.88 7.15 0 0 0zm12.79 -8.7l2.67 0 2.55 0 15.67 0 0 4.82 -15.67 0 0 1.76 14.45 0 0 4 -14.45 0 0 5.7 -5.21 0 0 -16.27 0 0zm23.18 0l2.03 0 3.3 0 15.48 0 0 4.82 -15.48 0 0 1.42 14.18 0 0 3.79 -14.18 0 0 1.39 15.48 -0 0 4.85 -15.48 0 -2.88 0 -2.45 0 0 -16.27 0 0z"/>
   <path class="fil1" d="M123.08 8.2c0.06,-1.12 0.64,-2 1.45,-2.48l8.64 -5.09c0.21,-0.12 0.58,-0.48 0.94,-0.58 0.58,-0.15 1.18,0.09 1.18,0.52l0 7.76c0,0.33 -0.06,0.76 -0.33,0.97l-6.33 4.3c-0.48,0.33 -0.58,1.06 -1.03,1.45 -0.12,0.09 -0.27,-0.21 -0.27,-0.36l0 -3.58 4.88 -3.27c0.24,-0.15 0.39,-0.45 0.39,-0.73l0 -3.09c0,-0.39 -0.33,0.15 -0.67,1l-4.61 2.67c-0.7,0.39 -1.03,1.64 -1,2.15l0 8.39 7.94 -4.45c0.36,-0.21 1.03,-0.24 1.03,0.7l0 7.94c0,0.61 -0.3,1.3 -0.82,1.61l-8.15 4.97 0 4.15 8.36 -5.03c0.15,-0.73 0.61,-1.48 0.61,-1.06l0 3.91 -8.97 5.61 0 10.97 -3.24 0 0 -6.06c-3.73,-2.36 -7.42,-4.73 -11.15,-7.09 -0.79,-0.48 -1.58,-1.36 -1.58,-2.27l0 -22.91c0,-0.15 0.27,-0.15 0.3,0 0.15,0.52 0.33,0.85 0.64,1.06l1.85 1.42 0 4.39 3.79 2.21 0.45 -0.06 0 2.67 -4.21 -2.21 0 11c0,1.15 0.45,2.27 1.7,3.03l8.24 5.09 0 -1.45 -7.48 -4.61c-0.67,-0.42 -1.3,-1.18 -1.3,-1.97l0 -8c0,-0.61 0.88,-1.06 1.73,-0.55l7.06 4.39 -0.03 -4.39 -8.76 -5.58 0 -3.48c0,-0.24 0.3,-0.21 0.36,-0.12 0.12,0.36 0.15,0.76 0.42,0.94l8.03 5.03 -0.06 -9.82 0 0zm3.24 13.06l0 4.36 5.15 -2.94c0.52,-0.3 1.12,-0.82 1.12,-1.42l0 -2.21c0,-0.85 -0.39,-1 -1.03,-0.67l-5.24 2.88 0 0zm-3.27 7.58l-4.91 -2.88c-0.33,-0.18 -0.82,-0.45 -0.82,0.64l0 1.91c0,0.52 0.21,1.09 0.67,1.36l5.06 3.15 0 -4.18 0 0z"/>
  </g>
 </g>
</svg>
