<?xml version="1.0" encoding="UTF-8"?>
<!DOCTYPE svg PUBLIC "-//W3C//DTD SVG 1.1//EN" "http://www.w3.org/Graphics/SVG/1.1/DTD/svg11.dtd">
<!-- Creator: CorelDRAW -->
<svg xmlns="http://www.w3.org/2000/svg" xml:space="preserve" width="6.53756in" height="1.5in" version="1.1" style="shape-rendering:geometricPrecision; text-rendering:geometricPrecision; image-rendering:optimizeQuality; fill-rule:evenodd; clip-rule:evenodd"
viewBox="0 0 365.07 83.76"
 xmlns:xlink="http://www.w3.org/1999/xlink"
 xmlns:xodm="http://www.corel.com/coreldraw/odm/2003">
 <defs>
  <style type="text/css">
   <![CDATA[
    .fil0 {fill:#2D509F}
   ]]>
  </style>
 </defs>
 <g id="Layer_x0020_1">
  <metadata id="CorelCorpID_0Corel-Layer"/>
  <g id="_2946550795344">
   <polygon class="fil0" points="365.07,75.37 347.88,19.67 326.24,19.67 309.05,75.37 326.84,75.37 337.06,35.76 347.29,75.37 "/>
   <polygon class="fil0" points="312.38,19.67 257.84,19.67 257.84,37.46 276.06,37.46 276.06,75.51 293.84,75.51 293.84,37.46 312.38,37.46 "/>
   <polygon class="fil0" points="257.92,75.37 240.74,19.67 219.09,19.67 201.9,75.37 219.69,75.37 229.91,35.76 240.14,75.37 "/>
   <polygon class="fil0" points="204.63,19.67 150.09,19.67 150.09,37.46 168.32,37.46 168.32,75.51 186.1,75.51 186.1,37.46 204.63,37.46 "/>
  </g>
  <g id="_2946550771344">
   <path class="fil0" d="M49.13 61.68c2.88,-12.24 5.02,-24.19 5.02,-24.19 0,0 1.07,-3.94 -1.07,-6.63 -2.15,-2.69 -8.78,-1.79 -8.78,-1.79 0,0 -10.29,0.12 -20.79,1.39 -9.34,1.13 -18.88,2.98 -22.39,3.69 -0.73,2.51 -1.11,5.12 -1.12,7.73 0,18.44 18.43,34.09 44.01,39.68 1.34,-4.88 3.36,-12.43 5.12,-19.88l0 -0z"/>
   <g>
    <path class="fil0" d="M68.15 53.97c-0.12,-14.83 0.29,-28.66 0.29,-28.66 0,0 -0.48,-2.08 0.85,-3.1 1.36,-1.04 4.52,-1.02 4.52,-1.02 0,0 12.26,0.34 26.01,2.11 10.03,1.29 20.88,3.36 25.78,4.34 -9.01,-16.12 -32.86,-27.64 -60.88,-27.64 -28.13,0 -52.05,11.61 -60.98,27.82 4.3,-0.86 15.97,-3.14 26.73,-4.52 13.74,-1.76 26,-2.11 26,-2.11 0,0 3.16,-0.02 4.52,1.02 1.33,1.02 0.85,3.1 0.85,3.1 0,0 0.42,13.83 0.29,28.66 -0.1,11.37 -0.45,23.29 -0.66,29.73 1.07,0.03 2.15,0.05 3.24,0.05 1.37,0 2.73,-0.04 4.08,-0.09 -0.21,-6.46 -0.56,-18.35 -0.66,-29.7l0 0z"/>
    <path class="fil0" d="M106.79 30.46c-10.49,-1.26 -20.79,-1.39 -20.79,-1.39 0,0 -6.63,-0.89 -8.78,1.79 -2.15,2.69 -1.07,6.63 -1.07,6.63 0,0 2.14,11.95 5.02,24.19 1.73,7.37 3.73,14.82 5.07,19.71 25.17,-5.74 43.22,-21.26 43.22,-39.5 0,-2.71 -0.41,-5.35 -1.17,-7.91 -4.06,-0.81 -12.86,-2.47 -21.5,-3.51l0 0z"/>
   </g>
  </g>
 </g>
</svg>
