<?xml version="1.0" encoding="UTF-8"?>
<!DOCTYPE svg PUBLIC "-//W3C//DTD SVG 1.1//EN" "http://www.w3.org/Graphics/SVG/1.1/DTD/svg11.dtd">
<!-- Creator: CorelDRAW -->
<svg xmlns="http://www.w3.org/2000/svg" xml:space="preserve" width="8.18861in" height="1.5in" version="1.1" style="shape-rendering:geometricPrecision; text-rendering:geometricPrecision; image-rendering:optimizeQuality; fill-rule:evenodd; clip-rule:evenodd"
viewBox="0 0 544.16 99.68"
 xmlns:xlink="http://www.w3.org/1999/xlink"
 xmlns:xodm="http://www.corel.com/coreldraw/odm/2003">
 <defs>
  <style type="text/css">
   <![CDATA[
    .fil0 {fill:#253C80;fill-rule:nonzero}
    .fil1 {fill:#DC4226;fill-rule:nonzero}
   ]]>
  </style>
 </defs>
 <g id="Layer_x0020_1">
  <metadata id="CorelCorpID_0Corel-Layer"/>
  <g id="_2947967327792">
   <polygon class="fil0" points="19.38,82.82 8.69,82.82 4.53,98.21 56.34,98.21 60.32,82.82 47.82,82.82 60.32,31.55 68.84,31.55 68.11,40.07 86.04,40.07 93.29,13.08 7.06,13.08 -0,40.07 18.66,40.07 22.46,31.37 31.7,31.37 "/>
   <polygon class="fil0" points="154.52,13.08 194.55,13.08 141.11,98.21 107.6,98.21 102.89,28.47 96.01,28.47 99.99,13.08 144.37,13.08 140.39,28.47 132.78,28.47 132.6,72.13 158.14,28.47 149.63,28.47 "/>
   <path class="fil0" d="M257.22 38.26c0,-8.51 2.72,-16.12 6.16,-23.91 -15.03,-2.72 -31.34,-3.8 -46.19,0 -8.33,2.17 -17.03,7.43 -21.74,14.85 -5.43,8.33 -4.17,19.02 2.54,26.08 3.44,3.44 7.61,5.8 11.96,7.79 3.44,1.63 9.42,4.17 10.33,8.15 2.54,10.14 -13.77,11.05 -20.11,9.06l0 -7.97 -17.03 0 -6.52 23.73c15.22,3.8 31.16,5.07 46.55,1.63 9.24,-2.17 17.57,-6.88 23.73,-14.31 5.07,-6.34 7.97,-18.11 2.54,-25 -3.08,-3.8 -6.52,-6.7 -10.69,-9.06 -3.99,-2.36 -8.33,-3.8 -11.96,-6.52 -4.35,-3.26 -4.35,-8.33 0.36,-11.23 3.62,-2.36 9.6,-1.27 13.59,-0.54l0.72 7.06 15.76 0 0 0.18z"/>
   <path class="fil1" d="M490.9 12.9c-7.06,-2.72 -13.77,-2.54 -21.01,-0.72 -7.06,1.81 -12.14,5.8 -17.75,10.14 -5.62,4.35 -11.59,8.69 -18.11,11.59 -6.7,2.9 -14.31,5.98 -21.56,3.08 5.25,0.18 10.14,-0.91 14.67,-3.8 3.44,-2.17 9.42,-6.7 10.69,-10.87l-5.98 -0c4.35,-4.71 9.78,-8.33 15.76,-10.51l-2.9 -3.44c7.97,-5.43 16.67,-7.97 26.27,-8.33 4.53,-0.18 9.06,0.36 13.22,1.63 4.53,1.27 7.97,3.44 11.23,6.7l-4.53 4.53z"/>
   <path class="fil1" d="M376.24 31.92c-2.54,0 -4.71,0.18 -7.25,0.91 -2.36,0.72 -4.53,1.63 -6.88,2.54 -4.35,1.81 -8.51,4.17 -12.68,6.34 -1.81,0.91 -3.99,1.99 -5.98,2.36 -2.17,0.36 -5.07,0.36 -7.06,-0.54 -2.17,-1.09 -3.99,-2.17 -5.8,-3.8 -1.81,-1.63 -3.62,-3.26 -5.43,-4.53 -1.99,-1.27 -3.99,-2.17 -5.98,-3.44 0.91,0 5.62,-0.18 4.35,-2.17 -1.09,-1.63 -3.62,-2.36 -5.62,-2.72 -4.53,-0.91 -9.06,-0.91 -13.59,-0.91 3.8,-3.26 7.97,-4.89 13.04,-4.89 4.71,0 8.51,2.17 12.5,4.53 1.99,1.27 4.35,3.44 6.34,4.71 1.99,1.27 4.17,1.99 6.34,2.72 4.17,1.45 9.42,0.72 13.59,-0.72 3.44,-1.27 6.52,-2.72 10.33,-2.72 3.44,-0.54 6.7,0.36 9.78,2.36z"/>
   <path class="fil1" d="M340.73 68.33c7.43,-0.36 13.59,-7.61 17.75,-13.04 4.53,-5.8 7.61,-14.49 14.67,-17.75 10.51,-4.71 21.56,-0.72 31.16,4.35 9.06,4.53 21.74,3.8 30.79,-0.18 9.96,-4.35 17.57,-11.77 26.08,-18.11 7.97,-5.98 18.3,-10.14 30.61,-6.88l5.43 -6.52 1.09 10.69 19.2 19.38 -3.8 4.53 -12.32 0 0 -3.08c-3.62,-2.54 -7.43,-4.35 -11.96,-3.8 -4.71,0.54 -9.78,2.72 -9.06,8.33 0.54,3.8 5.98,7.25 8.69,9.24 3.8,2.54 7.79,4.89 11.77,7.43 8.15,5.07 15.94,10.69 23.55,16.67 7.06,5.62 14.31,11.41 19.74,18.48l-16.67 -3.26c3.08,-2.17 -0.54,-4.53 -2.54,-6.16 -2.54,-1.99 -5.07,-3.62 -7.97,-5.25 -5.62,-3.08 -11.59,-4.71 -17.75,-6.16 -11.77,-2.9 -26.99,-4.71 -37.32,2.72 -0.36,0.18 -0.72,0.54 -1.09,0.72l-5.8 -4.89c-18.66,6.34 -39.49,4.71 -56.7,-4.71 -7.06,4.89 -15.22,5.98 -23.37,6.88 -7.79,0.91 -15.94,0.36 -23.91,-0.36 -19.02,15.76 -44.92,25 -69.2,16.67l16.3 -4.17 0 3.62c17.57,-0 32.24,-12.32 42.57,-25.36z"/>
  </g>
 </g>
</svg>
