<?xml version="1.0" encoding="UTF-8"?>
<!DOCTYPE svg PUBLIC "-//W3C//DTD SVG 1.1//EN" "http://www.w3.org/Graphics/SVG/1.1/DTD/svg11.dtd">
<!-- Creator: CorelDRAW -->
<svg xmlns="http://www.w3.org/2000/svg" xml:space="preserve" width="1.38445in" height="0.333335in" version="1.1" style="shape-rendering:geometricPrecision; text-rendering:geometricPrecision; image-rendering:optimizeQuality; fill-rule:evenodd; clip-rule:evenodd"
viewBox="0 0 225.99 54.41"
 xmlns:xlink="http://www.w3.org/1999/xlink"
 xmlns:xodm="http://www.corel.com/coreldraw/odm/2003">
 <defs>
  <style type="text/css">
   <![CDATA[
    .fil0 {fill:white;fill-rule:nonzero}
   ]]>
  </style>
 </defs>
 <g id="Layer_x0020_1">
  <metadata id="CorelCorpID_0Corel-Layer"/>
  <g id="layer1">
   <g id="g3414">
    <g>
     <path id="path3416" class="fil0" d="M156.43 45.26c-9.73,0 -13.48,-8.95 -13.48,-18.05 0,-9.1 3.75,-18.05 13.48,-18.05 9.72,0 13.48,8.95 13.48,18.05 0,9.1 -3.76,18.05 -13.48,18.05l0 0zm0 -45.26c-15.32,0 -24.16,11.48 -24.16,27.2 0,15.73 8.84,27.21 24.16,27.21 15.31,0 24.15,-11.48 24.15,-27.21 0,-15.73 -8.84,-27.2 -24.15,-27.2z"/>
    </g>
   </g>
   <g id="g3418">
    <polygon id="path3420" class="fil0" points="-0,1.53 38.38,1.53 38.38,10.68 10.68,10.68 10.68,22.07 36.51,22.07 36.51,31 10.68,31 10.68,43.73 38.38,43.73 38.38,52.89 -0,52.89 "/>
   </g>
   <g id="g3422">
    <g>
     <path id="path3424" class="fil0" d="M63.3 28.33l-9.67 0 0 -17.64 0 -0.01 9.67 0c6.72,0 11.19,2.92 11.19,8.83 0,5.9 -4.47,8.83 -11.19,8.83l0 0zm-20.34 24.56l10.67 0 0 -15.41 9.67 0c13.08,0 21.86,-6.43 21.86,-17.97 0,-11.55 -8.78,-17.97 -21.86,-17.97l-20.34 0 0 51.36 0 0z"/>
    </g>
   </g>
   <g id="g3426">
    <path id="path3428" class="fil0" d="M195.58 1.53l-10.96 0 0 51.36 10.47 0 0 -20.8c0,-5.69 -0.2,-10.74 -0.4,-15.21 1.23,2.57 4.98,10.3 6.71,13.2l13.62 22.82 10.96 0 0 -51.36 -10.47 0 0 20.28c0,5.69 0.21,11.27 0.4,15.72 -1.23,-2.57 -4.97,-10.29 -6.73,-13.19l-13.61 -22.82z"/>
   </g>
   <g id="g3430">
    <path id="path3432" class="fil0" d="M97.29 35.89c0,6.9 5.74,9.59 11.85,9.59 3.99,0 10.46,-1.16 10.46,-6.46 0,-5.6 -7.91,-6.66 -15.54,-8.69 -8,-2.12 -15.71,-5.12 -15.71,-14.64 0,-10.61 10.04,-15.7 19.41,-15.7 10.82,0 20.78,4.72 20.78,16.71l-10.68 0c-0.36,-6.25 -5.16,-7.85 -10.61,-7.85 -3.63,0 -8.21,1.53 -8.21,5.89 0,3.99 2.61,4.61 15.61,7.96 3.78,0.94 15.64,3.23 15.64,15 0,9.52 -7.48,16.64 -21.59,16.64 -11.47,0 -22.22,-5.66 -22.08,-18.45l10.68 0z"/>
   </g>
  </g>
 </g>
</svg>
