<svg width="46" height="30" viewBox="0 0 46 30" fill="none" xmlns="http://www.w3.org/2000/svg">
<path d="M36.6836 1.01562H42.3086L42.5942 1.03627L42.6162 1.07755L42.77 1.05691L42.792 1.07755V2.74947L42.748 7.51753L42.7261 14.8864V28.9842L35.9146 28.9635L35.519 28.9429L35.4971 28.9222L35.4751 27.1471L35.4531 12.8016L35.4971 12.6984L35.3213 12.9668L35.0356 13.4415L34.6621 14.102L34.4644 14.4116L34.1567 14.9276L33.937 15.2373L33.7393 15.5675L33.5195 15.9184L33.2119 16.4344L32.9263 16.9092L32.3989 17.7761L32.1792 18.1476L31.9375 18.5398L31.6299 19.0352L31.3223 19.5512L30.4434 20.9961L30.2456 21.3057L30.0698 21.5947L29.8501 21.9456L29.7622 21.9043L29.4766 21.4502L29.2788 21.1406L28.9712 20.6246L28.6636 20.1292L28.356 19.6131L28.0923 19.1797L27.7847 18.6637L27.4771 18.1683L27.1694 17.6523L26.9277 17.2601L26.73 16.9298L26.2026 16.0629L25.5435 14.9896L25.2798 14.5561L24.9722 14.0401L24.7085 13.6066L24.3789 13.07L24.0933 12.5952L23.8516 12.203L23.522 11.6664L23.2803 11.3155L23.0605 11.0059L22.8628 10.7582L22.665 10.5311L22.4673 10.3247L22.3135 10.1596L21.9619 9.82932L21.7202 9.64355L21.3906 9.39586L21.083 9.18945L20.7534 9.00368L20.3579 8.79727L19.8306 8.57022L19.2153 8.36381L18.7539 8.23997L18.2046 8.13676L17.6553 8.07484L16.9521 8.03356L12.9312 8.01292H4.33984L4.51562 7.72394L4.84521 7.22856L5.06494 6.93959L5.30664 6.62997L5.46045 6.4442L5.68018 6.17587L5.85596 5.96946L6.11963 5.68049L6.44922 5.35023L6.73486 5.06126L6.91064 4.91677L7.08643 4.75164L7.26221 4.60716L7.52588 4.3801L7.76758 4.19434L8.05322 3.96729L8.36084 3.76088L8.75635 3.49254L9.17383 3.22421L9.72314 2.9146L10.1846 2.6669L10.7339 2.39857L11.2393 2.19216L11.6567 2.02703L12.2061 1.84126L12.9971 1.59357L13.7222 1.42844L14.7988 1.22203L15.502 1.13947L16.4028 1.07755L16.8423 1.05691H17.4355L18.688 1.13947L19.2153 1.20139L20.2041 1.38716L20.8853 1.53165L21.8301 1.82062L22.6211 2.08896L23.1924 2.33665L23.9614 2.68754L24.4448 2.93524L24.8184 3.16229L25.4775 3.57511L25.8511 3.8228L26.1367 4.02921L26.4224 4.25626L26.752 4.52459L27.0156 4.75164L27.1914 4.89613L27.499 5.16446L27.6528 5.32959L27.9604 5.6392L28.1582 5.86626L28.3779 6.09331L28.6196 6.38228L28.8833 6.71254L29.125 7.04279L29.4766 7.51753L29.7183 7.86843L29.8062 7.99228L30.0479 7.57946L30.2676 7.20792L30.5752 6.71254L30.8608 6.23779L31.1904 5.72177L31.4541 5.26767L31.7617 4.77228L31.9595 4.44203L32.2891 3.90536L32.5088 3.55447L32.8384 2.99716L33.146 2.50178L33.4756 1.94447L33.7393 1.53165L33.959 1.16011L34.0249 1.05691L34.1567 1.03627L36.6836 1.01562Z" fill="#64CCC5"/>
<path d="M2.84619 11.522H10.6904L10.6245 11.7077L10.4707 11.9967L10.2949 12.3889L10.0312 13.132L9.89941 13.648L9.81152 14.164L9.76758 14.5562V15.258L9.89941 16.3313L10.0312 16.8267L10.2949 17.5904L10.5146 18.0652L10.8003 18.5605L11.02 18.8908L11.3276 19.283L11.5913 19.572L11.833 19.8196L11.9868 19.9848L12.2065 20.1705L12.5361 20.4389L12.8438 20.6659L13.0635 20.8104L13.5249 21.0581L14.0962 21.3471L14.4478 21.4709L15.2827 21.7186L15.7222 21.8218L16.1396 21.8837L16.9746 21.9457L17.5239 21.925L18.1831 21.8631L18.7983 21.7393L19.3257 21.5948L19.897 21.409L20.3584 21.2026L20.8418 20.9549L21.2153 20.7278L21.5449 20.5008L21.7646 20.3357L22.0283 20.1086L22.2041 19.9641L22.3579 19.8196L22.5557 19.5926L22.7534 19.3862L23.0171 19.0559L23.1709 18.8289L23.3687 18.5812L23.4565 18.5193L23.5444 18.5605L23.7202 18.8908L24.0278 19.4068L24.2476 19.7577L24.5771 20.2944L24.9287 20.8723L25.2803 21.4709L25.522 21.8631L25.8516 22.3998L26.1592 22.8952L26.7744 23.9272L27.082 24.4226L27.3677 24.8973L27.6973 25.434L27.9829 25.9087L28.2905 26.4041L28.6201 26.9614L29.2354 27.9728L29.5649 28.5095L29.8066 28.9017V28.9636L29.0156 28.9842H26.9941L17.1943 28.9636L16.1836 28.943L15.5903 28.9017L14.3599 28.7365L13.5688 28.5714L12.8218 28.3857L12.1626 28.1792L11.4814 27.9315L10.9321 27.7045L10.0972 27.3123L9.56982 27.0233L9.13037 26.7757L8.80078 26.5692L8.49316 26.3628L8.03174 26.0326L7.83398 25.8881L7.54834 25.661L7.37256 25.5166L7.15283 25.3308L6.86719 25.0831L6.27393 24.5258L6.12012 24.3607L5.90039 24.1336L5.65869 23.8446L5.43896 23.5969L5.15332 23.2254L4.88965 22.8745L4.66992 22.5649L4.34033 22.0489L4.07666 21.6154L3.81299 21.12L3.4834 20.4389L3.19775 19.7371L2.93408 18.994L2.69238 18.0858L2.58252 17.5491L2.47266 16.8886L2.38477 15.9804L2.34082 15.3199V14.8245L2.45068 13.4622L2.53857 12.8224L2.69238 11.9967L2.80225 11.5426L2.84619 11.522Z" fill="white"/>
<path d="M34.1567 1.03613H39.3643L42.4404 1.05677L42.5283 1.07741L42.4844 1.20126L42.1548 1.75857L41.8032 2.31587L41.4956 2.8319L41.2759 3.1828L40.9683 3.69882L40.6387 4.23549L40.353 4.71023L40.0894 5.14369L39.8696 5.49459L39.584 5.96933L39.2324 6.54728L38.9248 7.04266L38.7051 7.4142L38.3975 7.90958L38.0898 8.4256L37.9141 8.71458L37.6284 9.18932L36.9692 10.2627L36.7495 10.6342L36.5078 11.0264L36.2002 11.5218L35.8926 12.0378L35.541 12.6364L35.3872 12.8634L35.0796 13.3588L34.7939 13.8748L34.5303 14.3083L34.2446 14.783L34.0908 15.0101L34.0029 14.9069L33.8052 14.6179L33.5854 14.267L33.4097 13.978L33.124 13.5033L32.8164 12.9873L31.8496 11.3979L31.542 10.9025L31.2563 10.4278L31.0366 10.0562L30.8608 9.78791L30.6631 9.45765L30.4873 9.16868L30.1797 8.6733L29.894 8.19855L29.8281 8.07471L29.8501 7.93022L30.0479 7.57932L30.2676 7.20779L30.5752 6.7124L30.8608 6.23766L31.1904 5.72164L31.4541 5.26753L31.7617 4.77215L31.9595 4.4419L32.2891 3.90523L32.5088 3.55433L32.8384 2.99703L33.146 2.50164L33.4756 1.94434L33.7393 1.53152L33.959 1.15998L34.0249 1.05677L34.1567 1.03613Z" fill="white"/>
</svg>
