<?xml version="1.0" encoding="UTF-8"?>
<!DOCTYPE svg PUBLIC "-//W3C//DTD SVG 1.1//EN" "http://www.w3.org/Graphics/SVG/1.1/DTD/svg11.dtd">
<!-- Creator: CorelDRAW -->
<svg xmlns="http://www.w3.org/2000/svg" xml:space="preserve" width="1.28871in" height="0.333335in" version="1.1" style="shape-rendering:geometricPrecision; text-rendering:geometricPrecision; image-rendering:optimizeQuality; fill-rule:evenodd; clip-rule:evenodd"
viewBox="0 0 569.52 147.31"
 xmlns:xlink="http://www.w3.org/1999/xlink"
 xmlns:xodm="http://www.corel.com/coreldraw/odm/2003">
 <defs>
  <style type="text/css">
   <![CDATA[
    .fil0 {fill:white;fill-rule:nonzero}
   ]]>
  </style>
 </defs>
 <g id="Layer_x0020_1">
  <metadata id="CorelCorpID_0Corel-Layer"/>
  <g id="_2384261576496">
   <g>
    <path id="path5328" class="fil0" d="M213.5 59.07l-48.44 0 0 -41.37 -30.71 0 0 112.3 30.71 0 0 -44.99 48.44 0 0 44.99 30.64 0 0 -112.3 -30.64 0 0 41.37zm0 0z"/>
    <path id="path5330" class="fil0" d="M288.35 60.69c2.57,-15.16 10.95,-23.08 24.54,-23.08 13.74,0 23.08,9.34 23.53,23.08l-48.07 0zm24.71 -45.94c-33.79,0 -56.45,23.33 -56.45,58.32 0,36.39 22.4,59.52 57.42,59.52 27.98,0 47.16,-12.83 54.36,-37.13l-33.14 0c-3,8.88 -10.01,13.33 -20.55,13.33 -15.84,0 -25.36,-9.38 -26.16,-25.7l79.86 0c0,-3.94 0.23,-5.33 0.23,-7.21 0,-37.79 -21.45,-61.12 -55.56,-61.12z"/>
    <g>
     <path id="path5332" class="fil0" d="M420.81 16.73c-10.86,2.16 -38.73,10.54 -38.73,53.06l0 60.19 31.06 0 0 -49.72c0,-18.41 2.56,-27.06 10.23,-32.63 4.7,-3.76 11.49,-5.84 19.38,-5.84 3.27,0 4.67,0.25 8.41,0.93l0 -25.48c0,0 -12.39,-4.02 -30.35,-0.51l-0 0zm0 0l0 0 0 0z"/>
    </g>
    <g>
     <path id="path5334" class="fil0" d="M512.59 109.21c-16.36,0 -25.92,-13.28 -25.92,-35.45 0,-22.4 9.35,-35.47 25.92,-35.47 16.31,0 25.67,12.83 25.67,35.24 0,22.65 -9.35,35.68 -25.67,35.68l0 0zm0 -94.48c-34.82,0.02 -57.22,23.1 -57.22,59.02 0,35.68 22.4,58.81 57.22,58.81 34.5,0 56.93,-23.13 56.93,-58.81 0,-35.93 -22.43,-59.02 -56.93,-59.02z"/>
    </g>
   </g>
   <g>
    <path id="path5336" class="fil0" d="M92.13 24.79l-33.55 -24.79 0 70.6 33.55 -23.26 0 -22.56zm0 0z"/>
    <path id="path5338" class="fil0" d="M92.13 125.74l0 -48.5 -33.55 24.12 33.55 24.38zm0 0z"/>
    <path id="path5340" class="fil0" d="M-0 122.92l33.56 24.39 0 -100.97 -33.56 -24.79 0 101.36zm0 0z"/>
   </g>
  </g>
 </g>
</svg>
