<?xml version="1.0" encoding="UTF-8"?>
<!DOCTYPE svg PUBLIC "-//W3C//DTD SVG 1.1//EN" "http://www.w3.org/Graphics/SVG/1.1/DTD/svg11.dtd">
<!-- Creator: CorelDRAW -->
<svg xmlns="http://www.w3.org/2000/svg" xml:space="preserve" width="2.72881in" height="0.341209in" version="1.1" style="shape-rendering:geometricPrecision; text-rendering:geometricPrecision; image-rendering:optimizeQuality; fill-rule:evenodd; clip-rule:evenodd"
viewBox="0 0 100648.58 12585.03"
 xmlns:xlink="http://www.w3.org/1999/xlink"
 xmlns:xodm="http://www.corel.com/coreldraw/odm/2003">
 <defs>
  <style type="text/css">
   <![CDATA[
    .str0 {stroke:white;stroke-width:290.42;stroke-miterlimit:2.61313}
    .fil1 {fill:none;fill-rule:nonzero}
    .fil0 {fill:white;fill-rule:nonzero}
    .fil2 {fill:white;fill-rule:nonzero}
   ]]>
  </style>
 </defs>
 <g id="Layer_x0020_1">
  <metadata id="CorelCorpID_0Corel-Layer"/>
  <g id="_2420510968720">
   <path class="fil0" d="M16160.28 9194.05c0,0 1032.74,344.3 2163.79,344.3 1229.5,0 2016.4,-147.53 2409.78,-590.14 344.3,-344.3 491.83,-934.43 491.83,-1819.64l0 -5753.85 1770.42 0 0 6048.92c0,2655.62 -1327.81,3786.68 -4327.73,3786.68 -1475.35,0 -2508.09,-196.62 -2508.09,-196.62l0 -1819.64 0 0zm7917.65 -1967.18c0,1819.64 1229.5,3983.44 4622.8,3983.44 3393.3,0 4622.8,-2163.79 4622.8,-3983.44 0,-2606.4 -1721.19,-4130.97 -4622.8,-4130.97 -2901.47,0 -4622.8,1524.57 -4622.8,4130.97zm4622.8 2409.78c-1032.74,0 -2803.16,-344.3 -2803.16,-2508.09 0,-1573.66 1032.74,-2458.86 2803.16,-2458.86 1770.42,0 2803.16,885.21 2803.16,2458.86 0,2163.79 -1721.19,2508.09 -2803.16,2508.09zm12196.3 -6343.99l0 3049 -4721.11 0 0 -3049 -1770.42 0 0 7770.11 1770.42 0 0 -3098.23 4721.11 0 0 3098.23 1770.42 0 0 -7770.11 -1770.42 0zm28572.65 6147.23l0 -1475.35 4180.05 0 0 -1622.88 -4180.05 0 0 -1475.35 5360.33 0 0 -1573.66 -7130.89 0 0 7770.11 7130.89 0 0 -1622.88 -5360.33 0 0 0zm8360.25 0l0 -1475.35 4180.2 0 0 -1622.88 -4180.2 0 0 -1475.35 5360.48 0 0 -1573.66 -7130.89 0 0 7770.11 7130.89 0 0 -1622.88 -5360.48 0 0 0zm17458.32 0l0 -1475.35 4180.05 0 0 -1622.88 -4180.05 0 0 -1475.35 5360.33 0 0 -1573.66 -7179.97 0 0 7770.11 7179.97 0 0 -1622.88 -5360.33 0 0 0zm-36588.75 -6491.53l0 6491.53 2557.32 0c1377.04,0 3688.37,-442.6 3688.37,-3294.84 0,-2016.4 -1327.81,-3196.68 -3688.37,-3196.68l-2557.32 0 0 0zm2557.32 -1573.66c3442.52,0 5508.01,1819.64 5508.01,4868.64 0,2213.02 -1475.35,4819.42 -5508.01,4819.42l-4376.81 0 0 -9688.06 2114.57 0 2262.25 0zm31424.89 9688.06l-2213.02 0 -2163.79 -2852.24 -2114.71 0 0 2852.24 -1770.42 0 0 -7770.11 5065.41 0c1770.42,0 2803.16,934.43 2803.16,2458.86 0,934.43 -540.91,2016.4 -1868.72,2311.47l2262.1 2999.78zm-3098.23 -4426.04c393.52,0 983.66,-147.53 983.66,-885.21 0,-590.14 -344.3,-885.21 -983.66,-885.21l-3294.84 0 0 1770.42 3294.84 0zm-38949.16 4426.04l-4721.11 -5311.25 0 5311.25 -1770.42 0 0 -7770.11 1770.42 0 4721.11 5212.94 0 -5212.94 1770.42 0 0 7770.11 -1770.42 0z"/>
   <g>
    <path class="fil1 str0" d="M6949.67 145.21c1961.37,0 3960.93,421.98 5840.54,1332.31 639.22,1526.46 966.53,3165.61 966.53,4820.14 0,1590.5 -299.14,3209.17 -961.44,4809.83 -1887.17,912.94 -3879.18,1332.31 -5843.01,1332.31 -1963.84,0 -3955.85,-419.37 -5843.01,-1332.31 -664.92,-1603.28 -964.06,-3219.33 -964.06,-4812.45 0,-1595.58 301.75,-3232.11 966.53,-4820.14 1877,-907.72 3876.71,-1329.7 5837.93,-1329.7z"/>
    <path class="fil2" d="M12061.25 10443.89c-335.87,-559.64 -811.59,-1007.48 -811.59,-1007.48 -27.88,-27.88 -55.91,-27.88 -83.93,-55.91 -979.31,-279.82 -1622.88,-503.74 -1902.7,-671.6 -391.78,-195.89 -811.59,-671.6 -867.49,-727.51 -447.69,-55.91 -811.44,-28.03 -1175.34,0l-251.8 28.03c-447.69,55.91 -895.37,139.84 -1343.2,55.91 -279.68,-55.91 -587.52,-139.84 -895.37,-251.8 -475.71,-139.98 -951.42,-307.85 -1511.07,-307.85l0 0 0 28.03c111.96,251.8 615.7,979.31 1231.25,1175.2 139.98,56.05 251.8,83.93 279.82,111.96 0,0 251.8,475.71 307.85,615.55 -391.78,-167.86 -1595,-783.42 -2546.43,-1958.76l0 0c0,0 -28.03,-251.8 -28.03,-279.82 559.64,-223.77 1874.82,-363.75 2014.81,-363.75l0 0 0 -27.88c83.93,-671.6 251.8,-1203.22 559.64,-1818.92 0,0 0,-28.03 0,-28.03 0,-27.88 0,-27.88 0,-27.88 -28.03,-56.05 -56.05,-56.05 -56.05,-56.05l-895.37 -139.84 -83.93 -307.85c643.58,-223.92 1427.14,-447.69 1874.82,-531.62 55.91,-139.98 83.93,-195.89 83.93,-279.82 0,-56.05 -28.03,-111.96 -83.93,-167.86 -335.87,-223.92 -1343.2,-84.08 -2350.54,307.7 0,0 0,0 0,-27.88 223.92,-139.98 587.67,-391.78 867.49,-503.74l0 0 0 -28.03c-56.05,-251.8 -559.64,-447.69 -615.7,-447.69 0,-28.03 0,-28.03 0,-28.03 503.74,-27.88 839.47,195.89 951.42,363.9l0 0 0 0c55.91,-28.03 307.85,-84.08 531.76,-111.96l27.88 0 0 -28.03c-83.93,-419.81 -503.74,-699.48 -643.58,-783.56 0,-27.88 0,-27.88 28.03,-27.88 475.71,27.88 923.4,447.69 1007.33,811.44l28.03 0 0 0c139.84,0 279.82,28.03 391.78,28.03l0 27.88 27.88 -27.88c28.03,-83.93 56.05,-195.89 56.05,-279.82 0,-335.87 -195.89,-671.6 -419.81,-895.52 0,0 28.03,0 28.03,0 615.55,223.92 783.42,699.63 783.42,1119.29 0,307.85 -83.93,587.67 -111.81,755.53l-28.03 83.93c0,0 923.4,-111.96 1007.33,-111.96 -111.96,111.96 -307.85,335.87 -727.51,559.64 0,0 -419.81,-55.91 -419.81,-55.91l0 0 0 0c-27.88,83.93 -279.82,867.49 -279.82,1455.16 0,195.74 56.05,363.75 168.01,503.59 223.77,195.89 559.64,195.89 811.44,195.89 1035.36,-55.91 1846.8,28.03 2434.47,195.89l28.03 0 0 0c27.88,-55.91 55.91,-167.86 55.91,-279.82 0,-251.8 -83.93,-643.58 -419.81,-1063.38 0,0 0,0 0,0 56.05,28.03 979.45,531.76 1091.41,1315.18 -28.03,28.03 -447.83,195.89 -447.83,195.89l28.03 0c363.75,419.81 503.74,895.37 615.7,1287.15 83.93,307.85 195.74,503.74 335.73,643.58 139.84,111.96 727.51,419.81 923.4,503.74 139.98,195.89 391.78,587.67 587.67,895.37l0 0c391.78,-1203.22 587.67,-2434.47 587.67,-3693.59 0,-1427.14 -251.94,-2826.25 -755.53,-4141.43 -1595,-727.51 -3357.87,-1091.26 -5120.73,-1091.26 -1790.89,0 -3553.76,363.75 -5120.88,1091.26 -503.59,1315.18 -783.42,2714.29 -783.42,4141.43 0,1427.14 279.82,2826.25 783.42,4141.43 1567.12,727.51 3329.99,1091.26 5120.88,1091.26 1762.87,0 3525.73,-363.75 5120.73,-1091.26l0 0z"/>
   </g>
  </g>
 </g>
</svg>
