<?xml version="1.0" encoding="UTF-8"?>
<!DOCTYPE svg PUBLIC "-//W3C//DTD SVG 1.1//EN" "http://www.w3.org/Graphics/SVG/1.1/DTD/svg11.dtd">
<!-- Creator: CorelDRAW -->
<svg xmlns="http://www.w3.org/2000/svg" xml:space="preserve" width="1.57045in" height="0.333335in" version="1.1" style="shape-rendering:geometricPrecision; text-rendering:geometricPrecision; image-rendering:optimizeQuality; fill-rule:evenodd; clip-rule:evenodd"
viewBox="0 0 196.44 41.7"
 xmlns:xlink="http://www.w3.org/1999/xlink"
 xmlns:xodm="http://www.corel.com/coreldraw/odm/2003">
 <defs>
  <style type="text/css">
   <![CDATA[
    .fil0 {fill:white}
   ]]>
  </style>
 </defs>
 <g id="Layer_x0020_1">
  <metadata id="CorelCorpID_0Corel-Layer"/>
  <g id="g3">
   <path id="path7" class="fil0" d="M7.51 0l-7.51 0 0 30 7.51 0 0 -30 0 0zm186.24 40.95c1.14,0 2.14,-0.99 2.14,-2.19 0,-1.19 -1,-2.19 -2.14,-2.19 -0.05,0 -0.05,0 -0.1,0 -2.89,0 -2.84,4.38 0,4.38 0.05,0 0.05,0 0.1,0l0 0zm0 -4.97c1.49,0.05 2.69,1.24 2.69,2.79 0,1.49 -1.2,2.74 -2.69,2.79 -0.05,0 -0.05,0 -0.1,0 -1.49,0 -2.74,-1.29 -2.74,-2.79 0,-1.54 1.24,-2.79 2.74,-2.79 0.05,0 0.05,0 0.1,0l0 0zm0 3.53l0.3 0.7 0.99 0 -0.65 -1.34c0.4,-0.1 0.6,-0.4 0.6,-0.8 0,-0.7 -0.7,-0.85 -1.24,-0.9 -0.05,0 -0.05,0 -0.05,0l-1.24 0 0 3.04 0.95 0 0 -1.15 0.1 0 0.25 0.45 0 0zm0 -1.74c0.15,0.05 0.3,0.15 0.3,0.35 0,0.25 -0.15,0.35 -0.3,0.35 -0.05,0 -0.1,0.05 -0.15,0.05l-0.2 0 0 -0.75 0.15 0c0.05,-0 0.1,-0 0.2,-0l0 0zm-73.79 -25.73c8.16,0 14.83,6.67 14.83,14.78 0,8.16 -6.67,14.78 -14.83,14.78 -0.65,0 -1.24,0 -1.84,-0.1l0 -7.61c0.6,0.15 1.19,0.25 1.84,0.25 4.03,0 7.31,-3.28 7.31,-7.31 0,-4.03 -3.28,-7.26 -7.31,-7.26 -4.03,0 -7.31,3.23 -7.31,7.26 0,0.85 0.15,1.69 0.45,2.44l-7.76 0c-0.1,-0.8 -0.2,-1.59 -0.2,-2.44 -0,-8.11 6.67,-14.78 14.83,-14.78l0 0zm-82.7 29.66l-9.55 0 -17.91 -20.45 18.61 -21.25 9.6 0 -18.66 21.25 17.91 20.45 0 0zm5.32 -29.26c0,4.86 0,9.72 0,14.58 0,0.8 0.15,1.54 0.4,2.24l-6.47 0 -1.24 0c-0.15,-0.7 -0.2,-1.49 -0.2,-2.24l0 -0.2 0 -14.38 7.51 0 0 0zm130.02 -0.4c8.16,0 14.83,6.67 14.83,14.78 0,0.05 0,0.15 0,0.2l0 14.58 -7.51 0 0 -1.89c-2.19,1.19 -4.68,1.89 -7.31,1.89 -0.6,0 -1.24,0 -1.84,-0.1l0 -7.61c0.6,0.15 1.19,0.25 1.84,0.25 3.83,0 7.01,-2.99 7.31,-6.72l0 -0.4c0,-0.05 0,-0.15 0,-0.2 0,-4.03 -3.28,-7.26 -7.31,-7.26 -4.03,0 -7.32,3.23 -7.32,7.26 0,0.85 0.2,1.69 0.45,2.44l-7.71 0c-0.15,-0.8 -0.2,-1.59 -0.2,-2.44 0,-8.11 6.62,-14.78 14.78,-14.78l0 0zm-24.53 -12.04l-7.56 0 0 41.65 7.56 -0 0 -22.54 7.71 0 0 -7.51 -7.71 0 0 -11.59 0 0zm-69.51 0l-7.51 0 0 26.82 0 0.2c0,0.75 0.1,1.54 0.2,2.24l7.76 0c-0.3,-0.7 -0.45,-1.44 -0.45,-2.24l0 -0.8c0.3,-3.73 3.48,-6.67 7.31,-6.67 4.03,0 7.26,3.23 7.26,7.26 0,4.03 -3.23,7.31 -7.26,7.31 -0.65,0 -1.29,-0.1 -1.84,-0.25l0 7.61c0.6,0.1 1.19,0.1 1.84,0.1 8.16,0 14.73,-6.62 14.73,-14.78 0,-8.11 -6.57,-14.78 -14.73,-14.78 -2.64,0 -5.13,0.7 -7.31,1.94l0 -13.98 0 0zm-21.4 12.44l7.51 0 0 14.38 0 0.2c-0.15,6.82 -6.72,14.58 -14.83,14.58 -0.6,0 -1.24,0 -1.84,-0.1l0 -7.61c0.6,0.15 1.2,0.25 1.84,0.25 3.93,0 7.12,-4.83 7.31,-7.11 0,-4.88 0,-9.7 0,-14.58l0 0z"/>
  </g>
 </g>
</svg>
