<?xml version="1.0" encoding="UTF-8"?>
<!DOCTYPE svg PUBLIC "-//W3C//DTD SVG 1.1//EN" "http://www.w3.org/Graphics/SVG/1.1/DTD/svg11.dtd">
<!-- Creator: CorelDRAW -->
<svg xmlns="http://www.w3.org/2000/svg" xml:space="preserve" width="3.33333in" height="0.333335in" version="1.1" style="shape-rendering:geometricPrecision; text-rendering:geometricPrecision; image-rendering:optimizeQuality; fill-rule:evenodd; clip-rule:evenodd"
viewBox="0 0 1111.32 111.13"
 xmlns:xlink="http://www.w3.org/1999/xlink"
 xmlns:xodm="http://www.corel.com/coreldraw/odm/2003">
 <defs>
  <style type="text/css">
   <![CDATA[
    .fil0 {fill:white;fill-rule:nonzero}
   ]]>
  </style>
 </defs>
 <g id="Layer_x0020_1">
  <metadata id="CorelCorpID_0Corel-Layer"/>
  <g id="_2420511686848">
   <path class="fil0" d="M45.03 0c-13.34,14.42 -28.41,25.3 -44.65,33.81l57.79 50.6 -3.29 1.89 -23.97 -19.39c-7.73,-6.38 -27.06,-1.89 -30.92,6.15l44.45 38.07c12.37,-14.42 27.25,-26.01 44.84,-34.76l-58.37 -49.65 3.09 -3.07 18.94 16.55c9.47,8.28 17.01,10.4 37.3,-1.89l-45.23 -38.3z"/>
   <g>
    <polygon class="fil0" points="109.21,11.11 147.14,11.11 158.43,59.64 158.43,59.64 169.73,11.11 207.36,11.11 207.36,94.35 183.04,94.35 183.04,34.84 182.75,34.84 168.57,94.35 148.3,94.35 133.82,34.84 133.82,34.84 133.82,94.35 109.21,94.35 "/>
    <g>
     <path class="fil0" d="M256.59 36.26l0 0 -8.11 28.34 16.21 0 -8.11 -28.34 0 0zm-16.79 -25.15l33 0 28.95 83.24 -28.66 0 -2.9 -9.56 -28.09 0 -2.89 9.56 -28.66 0 29.25 -83.24z"/>
    </g>
    <g>
     <path class="fil0" d="M394.4 11.11l26.93 0 0 50.3c0,10.63 4.92,14.17 13.9,14.17 8.69,0 13.9,-3.54 13.9,-14.17l0 -50.3 26.93 0 0 51.72c0,26.56 -13.03,34.36 -40.83,34.36 -27.51,0 -40.83,-8.15 -40.83,-34.36l0 -51.72 0 0zm0 0l0 0 0 0z"/>
    </g>
    <polygon class="fil0" points="506.16,32.01 481.26,32.01 481.26,11.11 557.98,11.11 557.98,32.01 533.09,32.01 533.09,94.35 506.16,94.35 "/>
    <rect class="fil0" x="563.49" y="11.11" width="26.92" height="83.24"/>
    <g>
     <path class="fil0" d="M331.57 32.01l18.82 0c4.34,0 7.82,1.42 7.82,7.79 0,5.32 -2.32,7.79 -7.53,7.79l-19.11 0 0 -15.59 0 0zm61.38 62.34l-22.87 -25.86c18.82,-3.54 16.5,-26.21 16.5,-34 0,-9.21 -4.05,-17 -9.26,-20.19 -3.76,-2.13 -8.4,-3.19 -16.21,-3.19l-56.46 0 0 83.24 26.93 0 0 -25.5 4.63 0 22.59 25.5 34.16 -0 0 -0z"/>
    </g>
    <g>
     <path class="fil0" d="M649.52 61.76c-13.03,-2.48 -18.53,-11.69 -18.53,-23.38 0,-21.6 17.37,-27.27 39.38,-27.27 30.4,0 42.85,9.56 43.72,27.27l-31.27 0c0,-3.54 -1.74,-5.31 -4.05,-6.73 -2.32,-1.42 -5.5,-1.77 -8.4,-1.77 -8.11,0 -10.71,2.48 -10.71,6.02 0,2.48 0.87,3.9 3.48,4.25l32.14 5.67c13.61,2.48 22,10.27 22,24.09 0,20.19 -13.6,29.75 -43.72,29.75 -20.56,0 -43.14,-3.55 -43.43,-27.98l32.42 0c0,2.83 0.87,4.6 2.9,6.02 2.03,1.06 4.92,1.77 9.27,1.77 8.4,0 10.71,-2.83 10.71,-6.73 0,-2.48 -1.16,-4.96 -4.92,-5.67l-30.98 -5.31z"/>
     <path class="fil0" d="M724.5 13.94l26.93 0 0 50.3c0,10.63 4.92,14.17 13.9,14.17 8.69,0 13.9,-3.54 13.9,-14.17l0 -50.3 26.92 0 0 51.72c0,26.56 -13.03,34.36 -40.82,34.36 -27.51,0 -40.82,-8.15 -40.82,-34.36l0 -51.72z"/>
     <polygon class="fil0" points="813.1,79.47 853.93,34.84 815.99,34.84 815.99,13.94 890.12,13.94 890.12,32.01 850.45,76.29 889.25,76.29 889.25,97.18 813.1,97.18 "/>
     <g>
      <path class="fil0" d="M897.35 13.94l26.92 0 0 50.3c0,10.63 4.92,14.17 13.9,14.17 8.69,0 13.9,-3.54 13.9,-14.17l0 -50.3 26.93 0 0 51.72c0,26.56 -13.03,34.36 -40.83,34.36 -27.5,0 -40.82,-8.15 -40.82,-34.36l0 -51.72 0 0zm0 0l0 0 0 0z"/>
     </g>
     <rect class="fil0" x="1084.39" y="13.94" width="26.93" height="83.24"/>
     <polygon class="fil0" points="990.58,97.18 1016.64,97.18 1016.06,67.43 1042.41,97.18 1076.57,97.18 1039.23,54.68 1078.6,13.94 1045.88,13.94 1016.64,42.63 1016.64,13.94 990.58,13.94 "/>
    </g>
   </g>
  </g>
 </g>
</svg>
