<?xml version="1.0" encoding="UTF-8"?>
<!DOCTYPE svg PUBLIC "-//W3C//DTD SVG 1.1//EN" "http://www.w3.org/Graphics/SVG/1.1/DTD/svg11.dtd">
<!-- Creator: CorelDRAW -->
<svg xmlns="http://www.w3.org/2000/svg" xml:space="preserve" width="0.807606in" height="0.166665in" version="1.1" style="shape-rendering:geometricPrecision; text-rendering:geometricPrecision; image-rendering:optimizeQuality; fill-rule:evenodd; clip-rule:evenodd"
viewBox="0 0 51.74 10.68"
 xmlns:xlink="http://www.w3.org/1999/xlink"
 xmlns:xodm="http://www.corel.com/coreldraw/odm/2003">
 <defs>
  <style type="text/css">
   <![CDATA[
    .fil0 {fill:white}
   ]]>
  </style>
 </defs>
 <g id="Layer_x0020_1">
  <metadata id="CorelCorpID_0Corel-Layer"/>
  <g id="_2421470014112">
   <g>
    <polygon class="fil0" points="51.74,9.59 49.11,1.07 45.8,1.07 43.17,9.59 45.89,9.59 47.45,3.53 49.02,9.59 "/>
    <polygon class="fil0" points="43.68,1.07 35.34,1.07 35.34,3.79 38.12,3.79 38.12,9.61 40.84,9.61 40.84,3.79 43.68,3.79 "/>
    <polygon class="fil0" points="35.35,9.59 32.72,1.07 29.41,1.07 26.78,9.59 29.5,9.59 31.06,3.53 32.63,9.59 "/>
    <polygon class="fil0" points="27.2,1.07 18.85,1.07 18.85,3.79 21.64,3.79 21.64,9.61 24.36,9.61 24.36,3.79 27.2,3.79 "/>
   </g>
   <g>
    <path class="fil0" d="M6.26 7.86c0.37,-1.56 0.64,-3.08 0.64,-3.08 0,0 0.14,-0.5 -0.14,-0.84 -0.27,-0.34 -1.12,-0.23 -1.12,-0.23 0,0 -1.31,0.02 -2.65,0.18 -1.19,0.14 -2.41,0.38 -2.85,0.47 -0.09,0.32 -0.14,0.65 -0.14,0.99 0,2.35 2.35,4.35 5.61,5.06 0.17,-0.62 0.43,-1.58 0.65,-2.53l0 0z"/>
    <path class="fil0" d="M8.69 6.88c-0.02,-1.89 0.04,-3.65 0.04,-3.65 0,0 -0.06,-0.27 0.11,-0.4 0.17,-0.13 0.58,-0.13 0.58,-0.13 0,0 1.56,0.04 3.32,0.27 1.28,0.16 2.66,0.43 3.29,0.55 -1.15,-2.05 -4.19,-3.52 -7.76,-3.52 -3.59,0 -6.63,1.48 -7.77,3.55 0.55,-0.11 2.04,-0.4 3.41,-0.58 1.75,-0.22 3.31,-0.27 3.31,-0.27 0,0 0.4,-0 0.58,0.13 0.17,0.13 0.11,0.4 0.11,0.4 0,0 0.05,1.76 0.04,3.65 -0.01,1.45 -0.06,2.97 -0.08,3.79 0.14,0 0.27,0.01 0.41,0.01 0.18,0 0.35,-0 0.52,-0.01 -0.03,-0.82 -0.07,-2.34 -0.08,-3.79l0 0z"/>
    <path class="fil0" d="M13.61 3.88c-1.34,-0.16 -2.65,-0.18 -2.65,-0.18 0,0 -0.84,-0.11 -1.12,0.23 -0.27,0.34 -0.14,0.84 -0.14,0.84 0,0 0.27,1.52 0.64,3.08 0.22,0.94 0.47,1.89 0.65,2.51 3.21,-0.73 5.51,-2.71 5.51,-5.04 0,-0.35 -0.05,-0.68 -0.15,-1.01 -0.52,-0.1 -1.64,-0.32 -2.74,-0.45l0 0z"/>
   </g>
  </g>
 </g>
</svg>
